<svg xmlns="http://www.w3.org/2000/svg" xmlns:xlink="http://www.w3.org/1999/xlink" version="1.1" id="Layer_1" x="0px" y="0px" viewBox="0 0 100 100" enable-background="new 0 0 100 100" xml:space="preserve" height="100px" width="100px">
<path fill="#FFFFFF" stroke="#231F20" stroke-width="4" stroke-linecap="round" stroke-linejoin="round" stroke-miterlimit="10" d="  M2,71"/>
<path fill="none" d="M16.9,55.4l1.9,2.3l2.3-1.9c0.2-0.2,0.4-0.3,0.7-0.4c-0.7-0.9-1.3-1.7-1.9-2.5L16.9,55.4z"/>
<path fill="none" d="M50.1,73c1-0.5,2.2-0.1,2.7,0.9s0.1,2.2-0.9,2.7c-3.4,1.7-7.1,2.3-10.5,2.3c-6.5,0-11.8-2.1-12.2-2.2  c-1-0.4-1.5-1.6-1.1-2.6c0.4-1,1.6-1.5,2.6-1.1c0,0,0.6,0.2,1.7,0.5c-0.1-0.7-0.2-1.3-0.3-1.9H9.8v4.2c3-0.9,7.9-1.9,12.3-0.8  c1.1,0.3,1.7,1.3,1.5,2.4s-1.3,1.7-2.4,1.5c-4.1-1-9.1,0.3-11.4,1.1v5c3.5-1.2,9.8-2.7,16.6-1.7c2.1,0.3,4.2,0.7,6.5,1.2  c8.3,1.7,17.6,3.7,32.2,0c1.1-0.3,2.2,0.4,2.4,1.5c0.3,1.1-0.4,2.2-1.5,2.4c-6.4,1.6-11.9,2.2-16.8,2.2c-6.8,0-12.4-1.1-17.2-2.2  c-1.8-0.4-3.6-0.7-5.2-1l-11.7,0.3c-2.3,0.5-4.2,1.1-5.3,1.5v3.7h76.7V81.8c-0.9-0.3-2.3-0.7-4.2-1.1l-22.4,1  c-4.2,1.1-7.1,2.2-7.1,2.2c-0.2,0.1-0.5,0.1-0.7,0.1c-0.8,0-1.5-0.5-1.9-1.3c-0.4-1,0.1-2.2,1.1-2.6C51.7,80.1,62,76,73,76  c6.5,0,10.9,0.9,13.5,1.6v-6.2H49.9c-1.3,1.1-2.6,2.1-4,2.9C47.3,74.1,48.8,73.6,50.1,73z"/>
<path fill="none" d="M43,71.5h-6.8c0.2,1,0.3,2,0.4,2.9C38.2,73.8,40.6,72.8,43,71.5z"/>
<path fill="none" d="M41.2,39.3c1-0.9,26.1-22.3,35-24.9c0.5-0.1,2-0.6,2.4-2.9c0.4-2-0.2-4.1-0.8-5.1C72.2,10.8,40.6,35.8,39.2,37  L35.5,40c0.6,0.7,1.2,1.5,1.9,2.3L41.2,39.3z"/>
<path fill="none" d="M52.6,60.8c-0.6-0.1-1.2-0.3-2-0.5c-1.9,3.2-4.2,5.5-6.4,7.2h4.2C50.3,65.6,51.8,63.4,52.6,60.8z"/>
<path fill="none" d="M43.7,62.6c1.1-1.1,2.2-2.4,3.2-4.1c-1.9-1.1-3.9-2.8-5.7-5.1c-6-7.6-10.1-12.4-12-14.6l-9.3,7.7  C23,50.4,31.1,60.8,33.9,65c0.5,0.7,0.8,1.6,1.2,2.5h0.2c1.1-0.3,2.5-0.8,4.2-1.8L43.7,62.6z"/>
<path fill="#FFFFFF" d="M88.5,67.5H53.7c-1.1,1.5-2.4,2.8-3.7,4h36.6v6.2c-2.6-0.8-7-1.6-13.5-1.6c-11,0-21.3,4.1-21.7,4.3  c-1,0.4-1.5,1.6-1.1,2.6c0.3,0.8,1.1,1.3,1.9,1.3c0.2,0,0.5,0,0.7-0.1c0.1,0,2.9-1.2,7.1-2.2l22.4-1c2,0.4,3.4,0.8,4.2,1.1v10.9H9.8  v-3.7c1.1-0.4,3-1,5.3-1.5l11.7-0.3c1.7,0.3,3.4,0.6,5.2,1c4.8,1,10.4,2.2,17.2,2.2c4.8,0,10.4-0.6,16.8-2.2  c1.1-0.3,1.7-1.4,1.5-2.4c-0.3-1.1-1.4-1.7-2.4-1.5c-14.5,3.7-23.9,1.7-32.2,0c-2.2-0.5-4.4-0.9-6.5-1.2c-6.8-1-13.1,0.6-16.6,1.7  v-5c2.3-0.8,7.2-2.1,11.4-1.1c1.1,0.3,2.2-0.4,2.4-1.5s-0.4-2.2-1.5-2.4c-4.4-1.1-9.3-0.1-12.3,0.8v-4.2H32c-0.4-1.7-0.8-3.1-1.3-4  h-23c-1.1,0-2,0.9-2,2v25.3c0,1.1,0.9,2,2,2h80.7c1.1,0,2-0.9,2-2V69.5C90.5,68.4,89.6,67.5,88.5,67.5z"/>
<path fill="#FFFFFF" d="M35.1,67.6c0.1,0,0.1,0,0.2-0.1L35.1,67.6C35.1,67.5,35.1,67.5,35.1,67.6z"/>
<path fill="#FFFFFF" d="M79.3,2.4c-1.1-0.6-2.4-0.5-3.4,0.4c-2.6,2.2-38.7,30.8-39.1,31.1L32.9,37c-1.3-1.5-2-2.2-2.1-2.3  c-0.7-0.8-1.9-0.9-2.7-0.2L15.8,44.7c-0.8,0.7-1,1.9-0.3,2.8c0,0,0.8,0.9,1.9,2.4l-4.6,3.8c-0.9,0.7-1,2-0.3,2.8l4.5,5.4  c0.3,0.4,0.8,0.7,1.4,0.7c0.1,0,0.1,0,0.2,0c0.5,0,0.9-0.2,1.3-0.5l3.9-3.2c0.2-0.1,0.3-0.3,0.4-0.5c2.6,3.4,5.2,6.8,6.5,8.8  c0.1,0.1,0.1,0.2,0.2,0.3c0.5,0.9,0.9,2.3,1.3,4c0.1,0.6,0.2,1.3,0.3,1.9c2.7,0.8,8.2,2,13.5,0.9c1.4-0.8,2.7-1.8,4-2.9  c1.4-1.2,2.7-2.5,3.7-4c1.7-2.3,2.9-5.1,3.2-8.3c0.1-0.6-0.1-1.2-0.5-1.6c-0.4-0.4-1-0.7-1.5-0.6c-0.1,0-5.6,0.2-10.5-6.1  c-1.6-2-3.1-3.9-4.4-5.5l3.8-3.1c7.1-6,26.9-22.1,33.5-24.1c3-0.9,4.9-3.4,5.3-6.9C82.9,8.1,81.7,3.7,79.3,2.4z M21.1,55.8l-2.3,1.9  l-1.9-2.3l3-2.4c0.6,0.8,1.3,1.6,1.9,2.5C21.6,55.6,21.3,55.7,21.1,55.8z M52.6,60.8c-0.7,2.7-2.3,4.9-4.2,6.7  c-1.6,1.6-3.5,2.9-5.4,4c-2.4,1.3-4.7,2.3-6.4,2.9c-0.1-0.9-0.2-1.9-0.4-2.9c0,0,0,0,0-0.1c1.9-0.5,5-1.6,8.1-3.9  c2.3-1.7,4.6-4,6.4-7.2C51.3,60.5,52,60.7,52.6,60.8z M41.2,53.4c1.9,2.4,3.9,4,5.7,5.1c-1,1.6-2.1,3-3.2,4.1l-4.2,3.1  c-1.7,0.9-3.2,1.5-4.2,1.8c-0.1,0-0.2,0-0.2,0.1c0,0,0,0,0-0.1c-0.3-0.9-0.7-1.8-1.2-2.5C31.1,60.8,23,50.4,19.9,46.5l9.3-7.7  C31.1,41,35.3,45.8,41.2,53.4z M78.5,11.4c-0.4,2.4-1.9,2.8-2.4,2.9c-8.8,2.6-33.9,24-35,24.9l-3.7,3.1c-0.7-0.8-1.3-1.6-1.9-2.3  l3.7-3.1c1.4-1.1,33-26.1,38.5-30.6C78.3,7.3,78.9,9.4,78.5,11.4z"/>
<path fill="#FFFFFF" d="M52.8,73.9c-0.5-1-1.7-1.4-2.7-0.9c-1.3,0.7-2.8,1.1-4.2,1.4c-5.4,1.1-10.9-0.2-13.5-0.9  c-1-0.3-1.6-0.5-1.7-0.5c-1-0.4-2.2,0.1-2.6,1.1c-0.4,1,0.1,2.2,1.1,2.6c0.3,0.1,5.7,2.2,12.2,2.2c3.4,0,7.1-0.6,10.5-2.3  C52.9,76,53.3,74.8,52.8,73.9z"/>
</svg>
