<svg xmlns="http://www.w3.org/2000/svg" xmlns:xlink="http://www.w3.org/1999/xlink" version="1.1" id="Layer_1" x="0px" y="0px" width="100px" height="100px" viewBox="0 0 100 100" enable-background="new 0 0 100 100" xml:space="preserve">
<g>
	<circle fill="none" cx="62.943" cy="26.588" r="1.302"/>
	<circle fill="none" cx="73.268" cy="26.588" r="1.302"/>
	<circle fill="none" cx="83.59" cy="26.588" r="1.302"/>
	<path fill="none" d="M73.268,13.793c-10.772,0-19.537,6.015-19.537,13.409c0,3.377,1.87,6.615,5.266,9.119l0.709,0.522   l-2.467,4.419l5.472-2.804l0.429,0.18c3.071,1.289,6.574,1.971,10.133,1.971c10.772,0,19.537-6.015,19.537-13.408   C92.805,19.809,84.039,13.793,73.268,13.793z M62.943,29.89c-1.821,0-3.303-1.482-3.303-3.303c0-1.821,1.481-3.302,3.303-3.302   c1.82,0,3.302,1.481,3.302,3.302C66.245,28.408,64.764,29.89,62.943,29.89z M73.268,29.89c-1.821,0-3.303-1.482-3.303-3.303   c0-1.821,1.481-3.302,3.303-3.302c1.82,0,3.301,1.481,3.301,3.302C76.568,28.408,75.088,29.89,73.268,29.89z M83.59,29.89   c-1.82,0-3.302-1.482-3.302-3.303c0-1.821,1.481-3.302,3.302-3.302c1.821,0,3.303,1.481,3.303,3.302   C86.893,28.408,85.411,29.89,83.59,29.89z"/>
	<path fill="none" d="M46.754,70.953c-0.301-0.133-0.709-0.282-1.172-0.453c-2.277-0.842-5.395-1.993-5.953-4.112   c-0.725-2.755,0.949-4.929,2.425-6.847c0.542-0.704,1.054-1.369,1.42-2.021c1.511-2.688,2.626-6.146,2.842-8.807   c0.385-4.756-0.726-8.696-3.213-11.394c-2.16-2.342-5.228-3.581-8.872-3.581c-0.636,0-1.293,0.039-1.955,0.115   c-6.056,0.697-10.087,5.13-10.521,11.569c-0.349,5.219,1.122,10.012,4.498,14.653c0.216,0.297,0.435,0.573,0.645,0.84   c0.942,1.194,1.917,2.43,1.729,4.374c-0.253,2.619-2.641,3.525-4.383,4.187c-0.211,0.08-0.417,0.158-0.614,0.237   c-1.821,0.73-3.827,1.842-4.904,2.438l-0.296,0.164c-3.439,1.902-7.175,4.174-7.954,7.042c-0.542,1.997-0.398,3.612,0.436,4.939   c1.675,2.663,5.901,3.719,8.934,4.28c4.6,0.85,9.736,0.921,14.189,0.921c5.261,0,21.271,0,23.436-5.607   c0.558-1.45,0.286-3.89-0.016-4.79C56.096,75.054,50.019,72.386,46.754,70.953z"/>
	<path fill="#FFFFFF" d="M47.557,69.121c-0.33-0.145-0.775-0.31-1.282-0.497c-1.435-0.53-4.419-1.633-4.712-2.745   c-0.475-1.805,0.764-3.414,2.075-5.117c0.562-0.73,1.143-1.484,1.579-2.261c1.667-2.966,2.852-6.654,3.092-9.626   c0.432-5.328-0.86-9.792-3.736-12.911c-2.979-3.23-7.421-4.681-12.525-4.097c-7.077,0.815-11.786,5.958-12.288,13.423   c-0.382,5.705,1.212,10.927,4.876,15.963c0.232,0.319,0.466,0.616,0.691,0.902c0.933,1.182,1.415,1.85,1.309,2.944   c-0.124,1.285-1.309,1.827-3.102,2.509c-0.223,0.084-0.441,0.167-0.648,0.251c-1.936,0.776-4.013,1.927-5.129,2.544l-0.294,0.163   c-3.799,2.102-7.935,4.647-8.917,8.27c-0.686,2.53-0.459,4.727,0.674,6.527c2.093,3.328,6.859,4.552,10.263,5.183   c4.766,0.88,10.011,0.954,14.553,0.954c10.542,0,22.946-0.783,25.302-6.889c0.782-2.036,0.396-5.007,0.015-6.145   C57.711,73.578,51.106,70.679,47.557,69.121z M57.47,83.893C55.306,89.5,39.295,89.5,34.034,89.5   c-4.453,0-9.589-0.071-14.189-0.921c-3.033-0.562-7.259-1.617-8.934-4.28c-0.834-1.327-0.978-2.942-0.436-4.939   c0.778-2.868,4.514-5.14,7.954-7.042l0.296-0.164c1.078-0.597,3.083-1.708,4.904-2.438c0.197-0.079,0.403-0.157,0.614-0.237   c1.743-0.661,4.13-1.567,4.383-4.187c0.188-1.944-0.787-3.18-1.729-4.374c-0.21-0.267-0.428-0.543-0.645-0.84   c-3.376-4.642-4.847-9.435-4.498-14.653c0.434-6.439,4.465-10.873,10.521-11.569c0.662-0.077,1.319-0.115,1.955-0.115   c3.644,0,6.711,1.238,8.872,3.581c2.488,2.697,3.599,6.637,3.213,11.394c-0.216,2.662-1.331,6.119-2.842,8.807   c-0.366,0.651-0.878,1.316-1.42,2.021c-1.476,1.918-3.149,4.092-2.425,6.847c0.558,2.119,3.676,3.271,5.953,4.112   c0.463,0.171,0.871,0.32,1.172,0.453c3.265,1.433,9.342,4.101,10.7,8.149C57.756,80.003,58.027,82.442,57.47,83.893z"/>
	<path fill="#FFFFFF" d="M73.268,11.793c-11.876,0-21.537,6.913-21.537,15.409c0,3.782,1.902,7.372,5.379,10.188l-4.836,8.665   l10.525-5.395c3.207,1.276,6.817,1.949,10.473,1.949c11.876,0,21.537-6.912,21.537-15.408   C94.805,18.705,85.142,11.793,73.268,11.793z M73.271,40.61c-3.559,0-7.062-0.682-10.133-1.971l-0.429-0.18l-5.472,2.804   l2.467-4.419l-0.709-0.522c-3.396-2.504-5.266-5.742-5.266-9.119c0-7.394,8.765-13.409,19.537-13.409   c10.771,0,19.537,6.016,19.541,13.409C92.809,34.595,84.044,40.61,73.271,40.61z"/>
	<path fill="#FFFFFF" d="M83.59,23.285c-1.82,0-3.302,1.481-3.302,3.302c0,1.821,1.481,3.303,3.302,3.303   c1.821,0,3.303-1.482,3.303-3.303C86.893,24.766,85.411,23.285,83.59,23.285z M83.59,27.89c-0.718,0-1.302-0.584-1.302-1.303   c0-0.718,0.584-1.302,1.302-1.302c0.719,0,1.303,0.584,1.303,1.302C84.893,27.306,84.309,27.89,83.59,27.89z"/>
	<path fill="#FFFFFF" d="M62.943,23.285c-1.821,0-3.303,1.481-3.303,3.302c0,1.821,1.481,3.303,3.303,3.303   c1.82,0,3.302-1.482,3.302-3.303C66.245,24.766,64.764,23.285,62.943,23.285z M62.943,27.89c-0.719,0-1.303-0.584-1.303-1.303   c0-0.718,0.584-1.302,1.303-1.302c0.718,0,1.302,0.584,1.302,1.302C64.245,27.306,63.661,27.89,62.943,27.89z"/>
	<path fill="#FFFFFF" d="M73.268,23.285c-1.821,0-3.303,1.481-3.303,3.302c0,1.821,1.481,3.303,3.303,3.303   c1.82,0,3.301-1.482,3.301-3.303C76.568,24.766,75.088,23.285,73.268,23.285z M73.268,27.89c-0.719,0-1.303-0.584-1.303-1.303   c0-0.718,0.584-1.302,1.303-1.302c0.717,0,1.301,0.584,1.301,1.302C74.568,27.306,73.984,27.89,73.268,27.89z"/>
</g>
</svg>
