<svg xmlns="http://www.w3.org/2000/svg" xmlns:xlink="http://www.w3.org/1999/xlink" version="1.1" id="Layer_1" x="0px" y="0px" width="77.2727272727px" height="100px" viewBox="0 0 612 792" enable-background="new 0 0 612 792" xml:space="preserve">
<path fill="#FFFFFF" d="M372.728,162H126v468h360V275.272L372.728,162z M378,192.728L455.272,270H378V192.728z M144,612V180h216v108  h108v324H144z"/>
<path fill="#FFFFFF" d="M243,468.501c-2.304,0-4.606-0.879-6.364-2.636l-54-54c-3.515-3.516-3.515-9.214,0-12.729l54-54  c3.516-3.514,9.213-3.514,12.729,0c3.515,3.515,3.515,9.214,0,12.729l-47.637,47.636l47.637,47.636  c3.515,3.516,3.515,9.214,0,12.729C247.606,467.622,245.304,468.501,243,468.501z"/>
<path fill="#FFFFFF" d="M369,468.501c-2.304,0-4.606-0.879-6.364-2.636c-3.515-3.516-3.515-9.214,0-12.729l47.637-47.635  l-47.638-47.636c-3.515-3.515-3.515-9.214,0-12.729c3.517-3.514,9.213-3.514,12.729,0l54,54c3.515,3.516,3.515,9.214,0,12.729  l-54,54C373.606,467.622,371.304,468.501,369,468.501z"/>
<path fill="#FFFFFF" d="M278.996,477.503c-1.184,0-2.386-0.234-3.541-0.729c-4.569-1.958-6.686-7.249-4.728-11.817l54-126  c1.958-4.569,7.255-6.684,11.817-4.728c4.569,1.958,6.687,7.249,4.729,11.817l-54,126  C285.81,475.459,282.487,477.503,278.996,477.503z"/>
</svg>
